<mxfile host="app.diagrams.net" modified="2020-11-23T09:57:32.613Z" agent="5.0 (Windows NT 10.0; Win64; x64) AppleWebKit/537.36 (KHTML, like Gecko) Chrome/86.0.4240.198 Safari/537.36" etag="JtjC9b2QYAp3iakukaDs" version="13.10.0" type="github">
  <diagram id="jLm2Q9XRxe_-KwPBkzGc" name="Page-1">
    <mxGraphModel dx="1038" dy="523" grid="1" gridSize="10" guides="1" tooltips="1" connect="1" arrows="1" fold="1" page="1" pageScale="1" pageWidth="850" pageHeight="1100" background="#F1FAEE" math="0" shadow="1">
      <root>
        <mxCell id="0" />
        <mxCell id="1" parent="0" />
        <mxCell id="gp5s4ZF6EUAyzNuItkaX-1" value="" style="rounded=1;whiteSpace=wrap;html=1;fillColor=#A8DADC;strokeColor=#457B9D;fontColor=#1D3557;" parent="1" vertex="1">
          <mxGeometry x="260" y="70" width="170" height="70" as="geometry" />
        </mxCell>
        <mxCell id="gp5s4ZF6EUAyzNuItkaX-8" value="" style="edgeStyle=orthogonalEdgeStyle;rounded=0;orthogonalLoop=1;jettySize=auto;html=1;strokeColor=#457B9D;fontColor=#1D3557;labelBackgroundColor=#F1FAEE;" parent="1" target="gp5s4ZF6EUAyzNuItkaX-4" edge="1">
          <mxGeometry relative="1" as="geometry">
            <mxPoint x="340" y="300" as="sourcePoint" />
          </mxGeometry>
        </mxCell>
        <mxCell id="gp5s4ZF6EUAyzNuItkaX-2" value="" style="rhombus;whiteSpace=wrap;html=1;fillColor=#A8DADC;strokeColor=#457B9D;fontColor=#1D3557;" parent="1" vertex="1">
          <mxGeometry x="280" y="200" width="120" height="90" as="geometry" />
        </mxCell>
        <mxCell id="gp5s4ZF6EUAyzNuItkaX-4" value="" style="whiteSpace=wrap;html=1;aspect=fixed;fillColor=#A8DADC;strokeColor=#457B9D;fontColor=#1D3557;" parent="1" vertex="1">
          <mxGeometry x="295" y="360" width="90" height="90" as="geometry" />
        </mxCell>
        <mxCell id="gp5s4ZF6EUAyzNuItkaX-5" value="" style="rounded=0;whiteSpace=wrap;html=1;fillColor=#A8DADC;strokeColor=#457B9D;fontColor=#1D3557;" parent="1" vertex="1">
          <mxGeometry x="530" y="210" width="150" height="60" as="geometry" />
        </mxCell>
        <mxCell id="gp5s4ZF6EUAyzNuItkaX-6" value="" style="endArrow=classic;html=1;strokeColor=#457B9D;fontColor=#1D3557;labelBackgroundColor=#F1FAEE;" parent="1" edge="1">
          <mxGeometry width="50" height="50" relative="1" as="geometry">
            <mxPoint x="339.5" y="140" as="sourcePoint" />
            <mxPoint x="339.5" y="200" as="targetPoint" />
          </mxGeometry>
        </mxCell>
        <mxCell id="gp5s4ZF6EUAyzNuItkaX-7" value="" style="endArrow=classic;html=1;exitX=0.5;exitY=1;exitDx=0;exitDy=0;strokeColor=#457B9D;fontColor=#1D3557;labelBackgroundColor=#F1FAEE;" parent="1" source="gp5s4ZF6EUAyzNuItkaX-2" edge="1">
          <mxGeometry width="50" height="50" relative="1" as="geometry">
            <mxPoint x="340" y="300" as="sourcePoint" />
            <mxPoint x="339.5" y="360" as="targetPoint" />
          </mxGeometry>
        </mxCell>
        <mxCell id="gp5s4ZF6EUAyzNuItkaX-9" value="" style="endArrow=classic;html=1;exitX=1;exitY=0.5;exitDx=0;exitDy=0;strokeColor=#457B9D;fontColor=#1D3557;labelBackgroundColor=#F1FAEE;" parent="1" source="gp5s4ZF6EUAyzNuItkaX-2" edge="1">
          <mxGeometry width="50" height="50" relative="1" as="geometry">
            <mxPoint x="420" y="244.5" as="sourcePoint" />
            <mxPoint x="530" y="244.5" as="targetPoint" />
            <Array as="points">
              <mxPoint x="460" y="244.5" />
              <mxPoint x="500" y="244.5" />
            </Array>
          </mxGeometry>
        </mxCell>
        <mxCell id="gp5s4ZF6EUAyzNuItkaX-10" value="" style="endArrow=classic;html=1;strokeColor=#457B9D;fontColor=#1D3557;labelBackgroundColor=#F1FAEE;" parent="1" edge="1">
          <mxGeometry width="50" height="50" relative="1" as="geometry">
            <mxPoint x="604.5" y="270" as="sourcePoint" />
            <mxPoint x="605" y="400" as="targetPoint" />
          </mxGeometry>
        </mxCell>
        <mxCell id="gp5s4ZF6EUAyzNuItkaX-13" value="" style="endArrow=classic;html=1;entryX=0.998;entryY=0.431;entryDx=0;entryDy=0;entryPerimeter=0;strokeColor=#457B9D;fontColor=#1D3557;labelBackgroundColor=#F1FAEE;" parent="1" target="gp5s4ZF6EUAyzNuItkaX-4" edge="1">
          <mxGeometry width="50" height="50" relative="1" as="geometry">
            <mxPoint x="600" y="400" as="sourcePoint" />
            <mxPoint x="440" y="400" as="targetPoint" />
          </mxGeometry>
        </mxCell>
        <mxCell id="gp5s4ZF6EUAyzNuItkaX-15" value="&lt;font style=&quot;font-size: 18px&quot;&gt;&lt;font style=&quot;font-size: 18px&quot;&gt;Is&lt;br&gt;Logged&lt;br&gt;In&lt;/font&gt;?&lt;/font&gt;" style="text;html=1;resizable=0;autosize=1;align=center;verticalAlign=middle;points=[];fillColor=none;strokeColor=none;rounded=0;fontFamily=Times New Roman;fontColor=#1D3557;" parent="1" vertex="1">
          <mxGeometry x="305" y="220" width="70" height="50" as="geometry" />
        </mxCell>
        <mxCell id="gp5s4ZF6EUAyzNuItkaX-16" value="YES" style="text;html=1;resizable=0;autosize=1;align=center;verticalAlign=middle;points=[];fillColor=none;strokeColor=none;rounded=0;fontFamily=Times New Roman;fontColor=#1D3557;fontSize=18;" parent="1" vertex="1">
          <mxGeometry x="325" y="305" width="50" height="30" as="geometry" />
        </mxCell>
        <mxCell id="gp5s4ZF6EUAyzNuItkaX-17" value="NO" style="text;html=1;resizable=0;autosize=1;align=center;verticalAlign=middle;points=[];fillColor=none;strokeColor=none;rounded=0;fontFamily=Times New Roman;fontColor=#1D3557;fontSize=18;" parent="1" vertex="1">
          <mxGeometry x="440" y="235" width="40" height="30" as="geometry" />
        </mxCell>
        <mxCell id="gp5s4ZF6EUAyzNuItkaX-18" value="&lt;font style=&quot;font-size: 18px&quot;&gt;Registration &lt;br&gt;Form&lt;/font&gt;" style="text;html=1;resizable=0;autosize=1;align=center;verticalAlign=middle;points=[];fillColor=none;strokeColor=none;rounded=0;fontFamily=Times New Roman;fontColor=#1D3557;" parent="1" vertex="1">
          <mxGeometry x="555" y="219" width="100" height="40" as="geometry" />
        </mxCell>
        <mxCell id="gp5s4ZF6EUAyzNuItkaX-19" value="&lt;font style=&quot;font-size: 18px&quot;&gt;Main&lt;br&gt;&amp;nbsp;Menu&lt;/font&gt;" style="text;html=1;resizable=0;autosize=1;align=center;verticalAlign=middle;points=[];fillColor=none;strokeColor=none;rounded=0;fontFamily=Times New Roman;fontColor=#1D3557;" parent="1" vertex="1">
          <mxGeometry x="310" y="380" width="60" height="40" as="geometry" />
        </mxCell>
        <mxCell id="gp5s4ZF6EUAyzNuItkaX-20" value="" style="strokeWidth=2;html=1;shape=mxgraph.flowchart.decision;whiteSpace=wrap;fontFamily=Times New Roman;fillColor=#A8DADC;strokeColor=#457B9D;fontColor=#1D3557;" parent="1" vertex="1">
          <mxGeometry x="80" y="520" width="140" height="120" as="geometry" />
        </mxCell>
        <mxCell id="gp5s4ZF6EUAyzNuItkaX-21" value="" style="strokeWidth=2;html=1;shape=mxgraph.flowchart.decision;whiteSpace=wrap;fontFamily=Times New Roman;fillColor=#A8DADC;strokeColor=#457B9D;fontColor=#1D3557;" parent="1" vertex="1">
          <mxGeometry x="265" y="520" width="140" height="120" as="geometry" />
        </mxCell>
        <mxCell id="gp5s4ZF6EUAyzNuItkaX-22" value="" style="strokeWidth=2;html=1;shape=mxgraph.flowchart.decision;whiteSpace=wrap;fontFamily=Times New Roman;fillColor=#A8DADC;strokeColor=#457B9D;fontColor=#1D3557;" parent="1" vertex="1">
          <mxGeometry x="470" y="520" width="145" height="120" as="geometry" />
        </mxCell>
        <mxCell id="gp5s4ZF6EUAyzNuItkaX-23" value="" style="strokeWidth=2;html=1;shape=mxgraph.flowchart.display;whiteSpace=wrap;fontFamily=Times New Roman;fillColor=#A8DADC;strokeColor=#457B9D;fontColor=#1D3557;" parent="1" vertex="1">
          <mxGeometry x="200" y="750" width="260" height="110" as="geometry" />
        </mxCell>
        <mxCell id="ZFeLBMhyy24OwQ4tULWi-2" value="" style="rounded=0;whiteSpace=wrap;html=1;strokeColor=#457B9D;fontFamily=Times New Roman;fillColor=#A8DADC;fontColor=#1D3557;" vertex="1" parent="1">
          <mxGeometry x="730" y="210" width="120" height="60" as="geometry" />
        </mxCell>
        <mxCell id="ZFeLBMhyy24OwQ4tULWi-4" value="" style="strokeWidth=2;html=1;shape=mxgraph.flowchart.annotation_2;align=left;labelPosition=right;pointerEvents=1;fontFamily=Times New Roman;direction=south;fillColor=#A8DADC;strokeColor=#457B9D;fontColor=#1D3557;" vertex="1" parent="1">
          <mxGeometry x="135" y="449" width="400" height="50" as="geometry" />
        </mxCell>
        <mxCell id="ZFeLBMhyy24OwQ4tULWi-5" value="" style="endArrow=classic;html=1;fontFamily=Times New Roman;strokeColor=#457B9D;fontColor=#1D3557;labelBackgroundColor=#F1FAEE;" edge="1" parent="1">
          <mxGeometry width="50" height="50" relative="1" as="geometry">
            <mxPoint x="334.5" y="470" as="sourcePoint" />
            <mxPoint x="335" y="520" as="targetPoint" />
          </mxGeometry>
        </mxCell>
        <mxCell id="ZFeLBMhyy24OwQ4tULWi-9" value="" style="endArrow=classic;html=1;fontFamily=Times New Roman;strokeColor=#457B9D;fontColor=#1D3557;labelBackgroundColor=#F1FAEE;" edge="1" parent="1">
          <mxGeometry width="50" height="50" relative="1" as="geometry">
            <mxPoint x="135" y="470" as="sourcePoint" />
            <mxPoint x="135" y="520" as="targetPoint" />
          </mxGeometry>
        </mxCell>
        <mxCell id="ZFeLBMhyy24OwQ4tULWi-10" value="" style="endArrow=classic;html=1;fontFamily=Times New Roman;strokeColor=#457B9D;fontColor=#1D3557;labelBackgroundColor=#F1FAEE;" edge="1" parent="1">
          <mxGeometry width="50" height="50" relative="1" as="geometry">
            <mxPoint x="535" y="500" as="sourcePoint" />
            <mxPoint x="535" y="530" as="targetPoint" />
          </mxGeometry>
        </mxCell>
        <mxCell id="ZFeLBMhyy24OwQ4tULWi-11" value="" style="endArrow=classic;html=1;fontFamily=Times New Roman;exitX=0.5;exitY=1;exitDx=0;exitDy=0;exitPerimeter=0;strokeColor=#457B9D;fontColor=#1D3557;labelBackgroundColor=#F1FAEE;" edge="1" parent="1" source="gp5s4ZF6EUAyzNuItkaX-21">
          <mxGeometry width="50" height="50" relative="1" as="geometry">
            <mxPoint x="334.5" y="650" as="sourcePoint" />
            <mxPoint x="335" y="750" as="targetPoint" />
          </mxGeometry>
        </mxCell>
        <mxCell id="ZFeLBMhyy24OwQ4tULWi-12" value="" style="endArrow=none;html=1;fontFamily=Times New Roman;strokeColor=#457B9D;fontColor=#1D3557;labelBackgroundColor=#F1FAEE;" edge="1" parent="1">
          <mxGeometry width="50" height="50" relative="1" as="geometry">
            <mxPoint x="542" y="640" as="sourcePoint" />
            <mxPoint x="542" y="800" as="targetPoint" />
          </mxGeometry>
        </mxCell>
        <mxCell id="ZFeLBMhyy24OwQ4tULWi-13" value="" style="endArrow=none;html=1;fontFamily=Times New Roman;strokeColor=#457B9D;fontColor=#1D3557;labelBackgroundColor=#F1FAEE;" edge="1" parent="1">
          <mxGeometry width="50" height="50" relative="1" as="geometry">
            <mxPoint x="150" y="800" as="sourcePoint" />
            <mxPoint x="149.5" y="640" as="targetPoint" />
          </mxGeometry>
        </mxCell>
        <mxCell id="ZFeLBMhyy24OwQ4tULWi-14" value="" style="endArrow=classic;html=1;fontFamily=Times New Roman;strokeColor=#457B9D;fontColor=#1D3557;labelBackgroundColor=#F1FAEE;" edge="1" parent="1">
          <mxGeometry width="50" height="50" relative="1" as="geometry">
            <mxPoint x="150" y="800" as="sourcePoint" />
            <mxPoint x="210" y="800" as="targetPoint" />
          </mxGeometry>
        </mxCell>
        <mxCell id="ZFeLBMhyy24OwQ4tULWi-15" value="" style="endArrow=classic;html=1;fontFamily=Times New Roman;strokeColor=#457B9D;fontColor=#1D3557;labelBackgroundColor=#F1FAEE;" edge="1" parent="1">
          <mxGeometry width="50" height="50" relative="1" as="geometry">
            <mxPoint x="540" y="800" as="sourcePoint" />
            <mxPoint x="460" y="800" as="targetPoint" />
            <Array as="points">
              <mxPoint x="510" y="800" />
            </Array>
          </mxGeometry>
        </mxCell>
        <mxCell id="ZFeLBMhyy24OwQ4tULWi-16" value="" style="shape=cylinder3;whiteSpace=wrap;html=1;boundedLbl=1;backgroundOutline=1;size=15;strokeColor=#457B9D;fontFamily=Times New Roman;fillColor=#A8DADC;fontColor=#1D3557;" vertex="1" parent="1">
          <mxGeometry x="720" y="530" width="120" height="110" as="geometry" />
        </mxCell>
        <mxCell id="ZFeLBMhyy24OwQ4tULWi-17" value="" style="endArrow=classic;html=1;fontFamily=Times New Roman;strokeColor=#457B9D;fontColor=#1D3557;labelBackgroundColor=#F1FAEE;" edge="1" parent="1">
          <mxGeometry width="50" height="50" relative="1" as="geometry">
            <mxPoint x="334.5" y="860" as="sourcePoint" />
            <mxPoint x="334.5" y="930" as="targetPoint" />
          </mxGeometry>
        </mxCell>
        <mxCell id="ZFeLBMhyy24OwQ4tULWi-18" value="" style="endArrow=classic;startArrow=classic;html=1;fontFamily=Times New Roman;entryX=0;entryY=0.5;entryDx=0;entryDy=0;entryPerimeter=0;strokeColor=#457B9D;fontColor=#1D3557;labelBackgroundColor=#F1FAEE;" edge="1" parent="1" target="ZFeLBMhyy24OwQ4tULWi-16">
          <mxGeometry width="50" height="50" relative="1" as="geometry">
            <mxPoint x="620" y="585" as="sourcePoint" />
            <mxPoint x="690" y="580" as="targetPoint" />
          </mxGeometry>
        </mxCell>
        <mxCell id="ZFeLBMhyy24OwQ4tULWi-19" value="" style="rounded=1;whiteSpace=wrap;html=1;sketch=0;strokeColor=#457B9D;fillColor=#A8DADC;fontColor=#1D3557;" vertex="1" parent="1">
          <mxGeometry x="240" y="930" width="190" height="90" as="geometry" />
        </mxCell>
        <mxCell id="ZFeLBMhyy24OwQ4tULWi-20" value="" style="endArrow=classic;startArrow=classic;html=1;strokeColor=#457B9D;fillColor=#A8DADC;fontColor=#1D3557;exitX=0;exitY=0;exitDx=0;exitDy=75;exitPerimeter=0;labelBackgroundColor=#F1FAEE;" edge="1" parent="1" source="ZFeLBMhyy24OwQ4tULWi-16">
          <mxGeometry width="50" height="50" relative="1" as="geometry">
            <mxPoint x="700" y="600" as="sourcePoint" />
            <mxPoint x="600" y="605" as="targetPoint" />
          </mxGeometry>
        </mxCell>
        <mxCell id="ZFeLBMhyy24OwQ4tULWi-21" value="" style="endArrow=classic;html=1;strokeColor=#457B9D;fillColor=#A8DADC;fontColor=#1D3557;labelBackgroundColor=#F1FAEE;" edge="1" parent="1">
          <mxGeometry width="50" height="50" relative="1" as="geometry">
            <mxPoint x="680" y="240" as="sourcePoint" />
            <mxPoint x="730" y="240" as="targetPoint" />
          </mxGeometry>
        </mxCell>
        <mxCell id="ZFeLBMhyy24OwQ4tULWi-22" value="Application&lt;br style=&quot;font-size: 18px;&quot;&gt;Opens" style="text;html=1;resizable=0;autosize=1;align=center;verticalAlign=middle;points=[];fillColor=none;strokeColor=none;rounded=0;sketch=0;fontColor=#1D3557;fontSize=18;" vertex="1" parent="1">
          <mxGeometry x="290" y="75" width="100" height="50" as="geometry" />
        </mxCell>
        <mxCell id="ZFeLBMhyy24OwQ4tULWi-23" value="Auth/&lt;br&gt;Login" style="text;html=1;resizable=0;autosize=1;align=center;verticalAlign=middle;points=[];fillColor=none;strokeColor=none;rounded=0;sketch=0;fontSize=18;fontColor=#1D3557;" vertex="1" parent="1">
          <mxGeometry x="750" y="215" width="60" height="50" as="geometry" />
        </mxCell>
        <mxCell id="ZFeLBMhyy24OwQ4tULWi-24" value="" style="endArrow=classic;html=1;strokeColor=#457B9D;fillColor=#A8DADC;fontSize=18;fontColor=#1D3557;labelBackgroundColor=#F1FAEE;" edge="1" parent="1">
          <mxGeometry width="50" height="50" relative="1" as="geometry">
            <mxPoint x="220" y="579.5" as="sourcePoint" />
            <mxPoint x="270" y="579.5" as="targetPoint" />
            <Array as="points">
              <mxPoint x="210" y="579.5" />
            </Array>
          </mxGeometry>
        </mxCell>
        <mxCell id="ZFeLBMhyy24OwQ4tULWi-25" value="" style="endArrow=classic;html=1;strokeColor=#457B9D;fillColor=#A8DADC;fontSize=18;fontColor=#1D3557;labelBackgroundColor=#F1FAEE;" edge="1" parent="1" source="gp5s4ZF6EUAyzNuItkaX-21" target="gp5s4ZF6EUAyzNuItkaX-22">
          <mxGeometry width="50" height="50" relative="1" as="geometry">
            <mxPoint x="420" y="600" as="sourcePoint" />
            <mxPoint x="460" y="600" as="targetPoint" />
          </mxGeometry>
        </mxCell>
        <mxCell id="ZFeLBMhyy24OwQ4tULWi-26" value="Current&lt;br&gt;Location" style="text;html=1;resizable=0;autosize=1;align=center;verticalAlign=middle;points=[];fillColor=none;strokeColor=none;rounded=0;sketch=0;fontSize=18;fontColor=#1D3557;" vertex="1" parent="1">
          <mxGeometry x="110" y="555" width="80" height="50" as="geometry" />
        </mxCell>
        <mxCell id="ZFeLBMhyy24OwQ4tULWi-27" value="Area&lt;br&gt;Location" style="text;html=1;resizable=0;autosize=1;align=center;verticalAlign=middle;points=[];fillColor=none;strokeColor=none;rounded=0;sketch=0;fontSize=18;fontColor=#1D3557;" vertex="1" parent="1">
          <mxGeometry x="295" y="555" width="80" height="50" as="geometry" />
        </mxCell>
        <mxCell id="ZFeLBMhyy24OwQ4tULWi-28" value="Speech&lt;br&gt;To&lt;br&gt;Text" style="text;html=1;resizable=0;autosize=1;align=center;verticalAlign=middle;points=[];fillColor=none;strokeColor=none;rounded=0;sketch=0;fontSize=18;fontColor=#1D3557;" vertex="1" parent="1">
          <mxGeometry x="502.5" y="545" width="80" height="70" as="geometry" />
        </mxCell>
        <mxCell id="ZFeLBMhyy24OwQ4tULWi-29" value="Database" style="text;html=1;resizable=0;autosize=1;align=center;verticalAlign=middle;points=[];fillColor=none;strokeColor=none;rounded=0;sketch=0;fontSize=18;fontColor=#1D3557;" vertex="1" parent="1">
          <mxGeometry x="735" y="580" width="90" height="30" as="geometry" />
        </mxCell>
        <mxCell id="ZFeLBMhyy24OwQ4tULWi-30" value="Display" style="text;html=1;resizable=0;autosize=1;align=center;verticalAlign=middle;points=[];fillColor=none;strokeColor=none;rounded=0;sketch=0;fontSize=18;fontColor=#1D3557;" vertex="1" parent="1">
          <mxGeometry x="300" y="790" width="70" height="30" as="geometry" />
        </mxCell>
        <mxCell id="ZFeLBMhyy24OwQ4tULWi-31" value="Application&lt;br&gt;Closes" style="text;html=1;resizable=0;autosize=1;align=center;verticalAlign=middle;points=[];fillColor=none;strokeColor=none;rounded=0;sketch=0;fontSize=18;fontColor=#1D3557;" vertex="1" parent="1">
          <mxGeometry x="280" y="950" width="100" height="50" as="geometry" />
        </mxCell>
      </root>
    </mxGraphModel>
  </diagram>
</mxfile>
